<svg width="1038" height="683" viewBox="0 0 1038 683" fill="none" xmlns="http://www.w3.org/2000/svg">
<path d="M484.625 17.2451C461.12 27.1007 427.542 41.4844 409.773 49.0758C392.145 56.6672 366.961 67.3218 353.81 72.7823C296.307 96.622 272.942 106.478 255.873 113.669C215.16 130.983 161.854 153.358 136.95 163.613C82.9453 185.988 32.1582 208.096 23.7637 212.891C8.23375 221.681 -0.300719 239.261 0.818555 259.904C1.5181 273.089 4.59611 281.213 12.5709 290.403C19.5664 298.527 27.6811 303.455 51.6056 313.843C81.826 327.028 149.402 355.263 182.561 368.714C192.914 372.843 202.987 377.504 204.946 378.836L208.304 381.234L208.724 470.466L209.283 559.832L213.201 557.834C218.377 555.303 228.731 555.303 235.167 557.834C237.965 559.032 241.183 559.565 242.162 559.299C243.701 558.633 243.981 543.716 243.841 477.391C243.701 403.741 243.421 396.017 241.462 394.285C238.944 392.288 229.85 387.626 218.657 382.699C212.641 380.168 212.082 379.502 211.242 374.308C210.822 371.245 210.403 362.588 210.263 354.997C210.123 343.01 209.703 340.879 207.185 338.748C205.646 337.283 195.152 332.755 183.96 328.493C172.767 324.364 163.393 320.502 163.113 319.836C162.833 319.304 161.854 318.771 161.015 318.771C160.035 318.771 157.657 317.972 155.558 316.906C153.599 315.841 149.542 314.376 146.464 313.444C143.526 312.511 139.469 310.647 137.37 309.315C135.411 307.85 133.313 306.784 132.753 306.784C132.193 306.784 126.457 304.387 120.021 301.457C113.446 298.527 107.429 296.13 106.31 296.13C105.331 296.13 103.652 295.197 102.672 294.132C101.693 293.067 100.294 292.134 99.5945 292.134C98.8949 292.134 94.8376 290.669 90.6403 288.805C86.443 286.94 82.6655 285.475 82.2457 285.475C81.826 285.475 78.6081 284.143 74.9705 282.545C71.3328 280.947 67.5553 279.482 66.5759 279.349C65.5965 279.216 61.9589 277.751 58.4612 276.286C55.1033 274.687 51.8854 273.489 51.1859 273.489C50.6262 273.489 49.2272 272.29 48.1079 270.825C46.9886 269.36 45.3097 268.161 44.3303 268.161C43.351 268.161 42.2317 266.696 41.6721 264.832C41.2523 262.967 40.273 261.502 39.5734 261.502C36.9151 261.502 38.3142 249.915 41.2523 246.319C46.0092 240.593 71.6126 229.139 181.721 183.59C228.451 164.279 314.355 128.32 320.931 125.523C324.429 123.925 346.115 114.868 369.2 105.412C392.285 95.8229 425.723 82.1051 443.352 74.7801C505.331 49.0758 523.799 41.7508 526.318 41.7508C529.815 41.7508 548.004 48.9426 595.153 68.7869C604.807 72.7823 624.954 81.1728 639.924 87.4324C693.789 109.94 728.487 124.457 795.223 152.692C832.579 168.408 872.593 185.189 884.066 189.983C895.678 194.778 912.327 201.703 921.142 205.566C929.956 209.428 940.729 213.823 944.926 215.554C966.612 224.344 990.397 234.999 992.775 237.13C996.832 240.593 1000.89 248.85 1000.89 253.511C1000.89 259.771 997.532 266.164 992.355 269.76C989.697 271.624 977.525 277.484 965.213 282.811C952.901 288.139 938.77 294.265 933.733 296.396C928.697 298.66 916.105 303.988 905.752 308.383C895.398 312.778 884.345 317.439 881.267 318.771C878.189 320.103 866.577 325.03 855.384 329.825C844.192 334.486 832.719 339.414 829.921 340.746L824.604 343.276V361.656C824.604 371.778 824.884 380.035 825.304 380.035C825.584 380.035 838.315 374.574 853.565 367.915C868.816 361.256 892.6 351.001 906.451 345.274C962.135 322.367 1006.63 303.055 1013.34 298.927C1022.44 293.333 1032.23 280.947 1035.31 271.091C1038.53 260.57 1038.53 242.723 1035.17 234.2C1030.41 221.947 1022.58 212.225 1011.38 204.5C1008.17 202.236 992.355 194.778 980.323 189.717C973.188 186.787 963.394 182.525 958.637 180.394C953.74 178.263 938.211 171.604 923.94 165.611C909.669 159.617 892.04 152.159 884.765 148.963C877.49 145.766 863.359 139.773 853.286 135.645C843.352 131.516 832.299 126.855 828.801 125.39C825.304 123.925 819.987 121.66 816.909 120.329C813.831 119.13 808.515 116.866 805.017 115.401C801.519 113.936 793.404 110.473 786.829 107.676C780.253 105.013 768.361 99.8184 760.246 96.3557C736.881 86.367 721.631 79.841 702.603 71.8501C692.81 67.8546 680.917 62.6605 676.021 60.5295C671.124 58.3986 661.89 54.4031 655.314 51.6063C648.738 48.9426 639.504 44.9471 634.607 42.9494C629.851 40.8185 625.653 39.0871 625.373 39.0871C624.814 39.0871 587.878 23.6379 576.965 18.8433C559.476 11.2519 533.873 0.730487 530.795 0.0645735C528.137 -0.60134 516.524 3.79369 484.625 17.2451Z" fill="white"/>
<path d="M330.167 227.009C317.715 229.006 306.662 233.668 300.366 239.794C285.256 254.711 284.697 281.88 299.107 294.532C307.082 301.458 312.818 304.254 330.727 309.449C338.841 311.713 347.516 314.51 350.034 315.575C359.268 319.304 363.326 332.756 357.03 338.482C351.293 343.41 347.796 343.543 324.99 339.415C319.814 338.482 308.341 333.555 308.341 332.223C308.341 331.557 306.382 330.358 304.144 329.559C299.387 328.094 300.506 326.896 290.293 343.277C287.215 348.471 284.557 352.999 284.557 353.532C284.557 355.663 298.408 362.988 309.041 366.318C318.974 369.514 322.332 369.914 339.821 369.914C357.03 369.914 360.387 369.647 367.383 366.984C376.897 363.388 385.711 355.397 389.908 346.74C394.106 338.216 394.245 316.108 390.188 309.981C384.312 301.324 373.819 292.002 369.062 291.336C368.222 291.203 365.284 290.137 362.766 288.938C360.108 287.74 353.672 285.609 348.215 284.144C342.899 282.679 337.862 281.214 337.023 280.948C336.323 280.681 334.224 280.015 332.546 279.483C330.727 278.95 329.328 278.017 329.328 277.352C329.328 276.686 328.488 276.153 327.509 276.153C326.529 276.153 324.291 274.954 322.612 273.489C318.275 269.627 318.694 263.767 323.451 258.706C326.809 255.11 328.628 254.311 335.344 253.778C345.417 252.979 360.807 256.575 369.202 261.636C372.699 263.767 375.917 265.498 376.197 265.498C377.037 265.498 390.188 246.586 391.307 243.79C393.546 237.929 378.156 230.738 355.351 226.875C345.977 225.41 340.101 225.41 330.167 227.009Z" fill="white"/>
<path d="M709.599 226.876C667.766 233.668 642.723 260.97 642.723 299.86C642.723 320.769 650.418 337.55 665.668 349.936C683.856 364.72 710.019 371.912 736.322 369.381C747.655 368.182 770.04 362.988 775.776 360.058C779.274 358.194 780.393 347.672 779.414 324.232C778.854 313.578 778.435 301.991 778.435 298.395V292.135H752.971C738.84 292.135 726.528 292.668 725.549 293.334C724.29 294 723.87 297.063 724.15 303.589L724.57 312.778L736.182 313.444C744.157 313.977 748.214 314.776 749.054 316.108C749.893 317.174 750.453 322.501 750.453 327.828C750.453 337.018 750.313 337.55 746.815 338.882C734.783 343.144 715.475 341.413 700.645 334.62C684.975 327.562 676.161 314.909 675.182 298.128C674.762 290.137 675.182 287.74 678.4 281.214C680.498 276.952 684.975 271.092 688.473 268.029C697.987 259.772 705.402 257.108 721.212 256.442C736.602 255.776 745.836 257.774 756.049 263.9L762.205 267.63L767.941 260.304C775.636 250.049 778.435 245.921 778.435 244.056C778.435 242.058 773.398 236.065 772.419 237.131C771.999 237.53 770.6 236.864 769.341 235.666C766.682 233.135 751.852 228.873 739.26 227.009C728.907 225.411 719.253 225.411 709.599 226.876Z" fill="white"/>
<path d="M422.36 234.601C423.34 244.456 424.459 297.596 424.459 334.221V367.783L439.569 368.316C447.824 368.716 455.099 368.582 455.659 368.05C457.478 366.585 456.918 231.937 455.099 230.206C454.4 229.54 446.565 228.741 437.75 228.607L421.801 228.341L422.36 234.601Z" fill="white"/>
<path d="M543.384 230.737C543.384 232.202 535.549 248.85 526.035 267.762C507.567 304.387 503.929 312.112 492.317 336.085C482.943 355.663 478.326 366.584 479.166 367.25C479.445 367.516 486.581 368.049 494.835 368.315L509.946 368.981L514.982 358.46L520.019 348.071H557.235H594.591L599.627 357.927L604.804 367.915L620.334 368.315C628.868 368.581 636.284 368.581 636.843 368.315C638.382 367.915 637.263 360.324 635.584 359.259C634.885 358.859 634.325 357.128 634.325 355.263C634.325 353.532 633.765 352.067 633.066 352.067C632.366 352.067 629.848 347.672 627.609 342.344C625.231 337.017 619.215 325.031 614.178 315.708C609.141 306.252 604.944 297.462 604.944 296.13C604.944 294.798 604.384 293.333 603.685 292.934C602.286 292.135 598.368 285.342 591.932 272.823C589.694 268.428 584.377 258.04 580.04 249.782C568.707 227.674 569.267 228.207 555.136 228.207C544.503 228.207 543.384 228.473 543.384 230.737ZM568.707 294.399C574.863 306.785 580.46 317.839 581.299 319.171C582.558 321.435 581.579 321.568 561.992 320.902C550.659 320.502 540.166 320.236 538.907 320.236C534.849 320.103 535.829 315.841 543.244 300.925C547.022 293.333 550.519 285.609 551.079 283.877C552.478 279.615 556.116 272.157 556.955 272.157C557.235 272.157 562.551 282.146 568.707 294.399Z" fill="white"/>
<path d="M782.635 402.81C717.017 409.07 668.609 420.257 621.18 440.102C588.021 454.086 561.298 470.334 539.613 489.779C528.42 499.901 523.523 503.497 525.761 500.167C526.041 499.634 524.502 497.77 522.264 496.038C520.025 494.307 518.206 492.442 518.206 491.91C518.206 490.178 510.232 482.587 508.273 482.587C507.293 482.587 506.874 482.187 507.433 481.788C508.413 480.855 499.319 474.596 497.22 474.596C496.381 474.596 495.821 473.93 495.821 473.131C495.821 472.465 495.261 472.065 494.562 472.465C493.862 472.998 493.023 472.865 492.743 472.199C491.903 470.068 482.39 464.208 469.938 457.948C463.082 454.352 453.289 449.424 448.252 447.027C443.215 444.497 438.598 441.833 437.898 441.3C437.199 440.634 435.8 440.501 434.681 440.901C433.701 441.3 431.742 440.767 430.343 439.702C426.286 436.372 423.908 435.307 425.167 437.438C426.146 438.903 426.006 439.036 424.327 437.704C423.208 436.772 416.632 434.242 409.637 431.977C402.781 429.713 395.366 427.05 392.988 425.984C390.749 425.052 386.272 423.72 383.194 423.321C380.116 422.788 376.478 421.722 375.079 421.056C373.68 420.391 370.742 419.458 368.783 419.192C366.685 418.792 363.467 417.993 361.508 417.327C350.875 413.332 280.501 404.009 275.604 405.74C273.225 406.673 273.085 407.738 273.925 415.729C274.345 420.657 274.764 433.975 274.764 445.562V466.339L287.076 467.138C331.288 470.068 353.533 472.998 383.894 479.923C425.027 489.379 460.984 503.896 493.023 523.74C504.775 531.065 520.585 544.65 523.523 549.844C524.782 552.241 526.041 551.575 537.374 541.054C561.159 519.212 599.494 498.569 643.425 484.185C655.737 480.056 683.579 473.664 701.767 470.734C719.396 467.804 759.13 464.607 762.348 465.806C764.027 466.339 764.447 469.402 764.307 481.521C764.307 489.779 763.887 497.503 763.327 498.569C762.488 500.167 758.71 500.567 742.761 500.7C713.1 500.833 672.946 508.824 637.829 521.476C596.975 536.259 551.925 563.162 532.617 584.605L526.041 591.93L518.486 583.939C507.433 572.086 487.426 556.903 471.757 548.645C466.58 545.849 461.963 543.185 461.543 542.519C461.123 541.853 458.885 541.054 456.646 540.521C454.268 539.989 452.729 539.056 453.289 538.39C453.708 537.724 453.009 537.192 451.889 537.192C450.63 537.192 449.651 536.792 449.651 536.126C449.651 535.594 447.692 535.061 445.174 535.061C442.655 534.928 440.417 534.262 440.137 533.329C439.857 532.53 438.878 531.864 437.898 531.864C436.919 531.864 433.981 530.799 431.323 529.6C428.664 528.269 425.307 527.07 423.908 526.937C422.369 526.67 415.793 524.539 409.217 522.009C402.641 519.612 393.128 516.548 388.091 515.217C383.054 514.018 377.458 512.42 375.499 511.887C371.022 510.422 363.607 509.09 356.611 508.424C353.533 508.158 349.756 507.625 348.217 507.359C346.678 507.092 341.221 506.427 336.045 505.894C330.728 505.361 326.531 504.562 326.531 504.029C326.531 503.63 321.354 503.097 314.918 502.964C308.622 502.831 296.73 502.298 288.336 501.765L273.365 500.966L273.645 531.465L274.065 561.831L281.76 562.763C328.35 568.357 335.485 569.555 363.047 576.347C426.986 592.329 496.101 627.623 519.326 655.991C522.823 660.253 525.761 663.715 526.041 663.715C526.181 663.715 530.938 659.32 536.674 653.993C571.652 620.697 612.785 597.524 670.008 578.878C704.985 567.557 750.316 559.833 782.775 559.833H799.564L799.284 482.853C799.284 440.368 798.585 404.941 798.025 404.009C796.486 401.745 795.367 401.612 782.635 402.81Z" fill="white"/>
<path d="M216.009 563.429C214.89 563.695 212.371 565.959 210.413 568.223C207.474 571.819 206.915 573.817 206.915 581.941L206.775 591.53L198.94 599.521C185.649 613.372 185.369 614.305 184.949 650.397L184.529 681.695L226.502 682.494C249.587 682.894 268.615 683.16 268.895 682.894C269.454 682.627 269.174 626.691 268.615 620.964C267.775 612.307 259.94 602.052 249.587 596.325C245.11 593.661 241.892 588.334 244.131 587.135C244.83 586.603 245.11 585.138 244.69 583.673C244.131 582.341 243.711 579.278 243.711 576.88C243.431 567.691 227.621 559.966 216.009 563.429Z" fill="white"/>
</svg>
